<?xml version="1.0" encoding="utf-8"?>
<!-- Generator: Adobe Illustrator 24.1.1, SVG Export Plug-In . SVG Version: 6.00 Build 0)  -->
<svg version="1.1" id="Capa_1" xmlns="http://www.w3.org/2000/svg" xmlns:xlink="http://www.w3.org/1999/xlink" x="0px" y="0px"
	 width="21" height="21" viewBox="0 0 460 460" style="enable-background:new 0 0 460 460;" xml:space="preserve">
<style type="text/css">
	.st0{fill:#FFFFFF;}
</style>
<g id="XMLID_536_">
	<path id="XMLID_866_" class="st0" d="M256.5,76.9c-49.5-49.5-130-49.5-179.5,0c-49.5,49.5-49.5,130,0,179.5
		c24,24,55.8,37.2,89.8,37.2s65.8-13.2,89.8-37.2C306,207,306,126.4,256.5,76.9z M245.8,245.8c-21.1,21.1-49.2,32.8-79.1,32.8
		s-58-11.6-79.1-32.8C44,202.2,44,131.2,87.6,87.6c21.8-21.8,50.5-32.7,79.1-32.7c28.6,0,57.3,10.9,79.1,32.7
		C289.5,131.2,289.5,202.2,245.8,245.8z"/>
	<path id="XMLID_1679_" class="st0" d="M449.5,398.6L307.3,256.4c41.2-64.5,33.6-151.3-22.7-207.6c-65-65-170.8-65-235.8,0
		C17.3,80.3,0,122.2,0,166.7s17.3,86.4,48.8,117.9c31.5,31.5,73.4,48.8,117.9,48.8c32.3,0,63.2-9.1,89.7-26.1l142.1,142.1
		c6.8,6.8,15.8,10.5,25.4,10.5c9.6,0,18.6-3.7,25.4-10.5c6.8-6.8,10.5-15.8,10.5-25.4C460,414.4,456.3,405.4,449.5,398.6z
		 M59.5,273.9c-28.6-28.6-44.4-66.7-44.4-107.2S30.8,88.1,59.5,59.4c29.6-29.6,68.4-44.4,107.2-44.4c38.8,0,77.7,14.8,107.2,44.4
		c59.1,59.1,59.1,155.4,0,214.5c-28.6,28.6-66.7,44.4-107.2,44.4C126.2,318.4,88.1,302.6,59.5,273.9z M438.8,438.8
		c-3.9,3.9-9.2,6.1-14.8,6.1c-5.6,0-10.8-2.2-14.8-6.1L268.9,298.5c5.5-4.3,10.7-8.9,15.7-13.9c5-5,9.6-10.3,13.9-15.7l140.3,140.3
		c3.9,3.9,6.1,9.2,6.1,14.8S442.8,434.8,438.8,438.8z"/>
	<path id="XMLID_1697_" class="st0" d="M257.2,180.6L241,164.3c-1.4-1.4-3.3-2.2-5.3-2.2h-13.5c-0.3-5.4-1.2-10.7-2.5-15.7l4.4-6.7
		l13.4-3.4c4-1,6.5-5.1,5.5-9.1c-1-4-5.1-6.5-9.1-5.5l-16.2,4.1c-1.8,0.5-3.4,1.6-4.4,3.1l-0.2,0.3c-2.5-4.6-5.4-8.8-8.6-12.5
		c0-0.1,0-0.3,0-0.4c0-9.6-5.3-20-13.9-27.4l6.3-9.4c2.3-3.5,1.4-8.1-2.1-10.4c-3.5-2.3-8.1-1.4-10.4,2.1l-6.7,10.1
		c-3.9-1.4-8.2-2.2-12.6-2.2s-8.7,0.8-12.6,2.2l-6.7-10.1c-2.3-3.5-7-4.4-10.4-2.1c-3.5,2.3-4.4,7-2.1,10.4l6.3,9.4
		c-8.6,7.4-13.9,17.8-13.9,27.4c0,0.1,0,0.3,0,0.4c-3.3,3.8-6.2,8-8.6,12.5l-0.2-0.3c-1-1.6-2.6-2.7-4.4-3.1l-16.2-4.1
		c-4-1-8.1,1.4-9.1,5.5c-1,4,1.4,8.1,5.5,9.1l13.4,3.4l4.4,6.7c-1.3,5-2.2,10.3-2.5,15.7H94c-2,0-3.9,0.8-5.3,2.2l-16.2,16.2
		c-2.9,2.9-2.9,7.7,0,10.7c1.5,1.5,3.4,2.2,5.3,2.2s3.9-0.7,5.3-2.2l14-14h10.8c0.8,7.3,2.6,14.2,5.1,20.6l-13.7,5.5
		c-1.7,0.7-3.1,2-3.9,3.6l-8.1,16.2c-1.9,3.7-0.4,8.2,3.4,10.1c1.1,0.5,2.2,0.8,3.4,0.8c2.8,0,5.4-1.5,6.7-4.2l6.8-13.7l12.4-5
		c10.5,16,26.7,26.3,44.9,26.3c18.1,0,34.3-10.3,44.9-26.3l12.4,5l6.8,13.7c1.3,2.6,4,4.2,6.7,4.2c1.1,0,2.3-0.3,3.4-0.8
		c3.7-1.9,5.2-6.4,3.4-10.1l-8.1-16.2c-0.8-1.6-2.2-2.9-3.9-3.6l-13.7-5.5c2.5-6.4,4.3-13.3,5.1-20.6h10.8l14,14
		c1.5,1.5,3.4,2.2,5.3,2.2c1.9,0,3.9-0.7,5.3-2.2C260.1,188.3,260.1,183.5,257.2,180.6z M189.3,116.3c0,12.3-20.4,12.9-24.4,12.9
		s-24.4-0.6-24.4-12.9c0-10,11.3-22.2,24.4-22.2C178,94.1,189.3,106.3,189.3,116.3z M122.4,167.5c0-13.1,3.5-25.1,9.4-34.5
		c5.5,5.9,14.3,9.7,25.4,10.9v77.6C137.5,216.9,122.4,194.5,122.4,167.5z M172.4,221.6v-77.6c11.1-1.2,19.9-5,25.4-10.9
		c5.9,9.4,9.4,21.4,9.4,34.5C207.3,194.5,192.2,216.9,172.4,221.6z"/>
</g>
</svg>
