<svg width="14" height="12" viewBox="0 0 14 12" fill="none" xmlns="http://www.w3.org/2000/svg">
<path fill-rule="evenodd" clip-rule="evenodd" d="M12.88 10.6393H1.12V7.8393C1.12 7.53002 0.86928 7.2793 0.56 7.2793C0.250721 7.2793 0 7.53002 0 7.8393V11.1993C0 11.5086 0.250721 11.7593 0.56 11.7593H13.44C13.7493 11.7593 14 11.5086 14 11.1993V7.8393C14 7.53002 13.7493 7.2793 13.44 7.2793C13.1307 7.2793 12.88 7.53002 12.88 7.8393V10.6393Z" fill="#696E80"/>
<path fill-rule="evenodd" clip-rule="evenodd" d="M6.98873 8.05297L5.00017 6.06441C4.78148 5.84572 4.4269 5.84572 4.20821 6.06441C3.98952 6.2831 3.98952 6.63768 4.20821 6.85637L6.58409 9.23225C6.80278 9.45094 7.15735 9.45094 7.37605 9.23225L9.75193 6.85637C9.97062 6.63768 9.97062 6.2831 9.75193 6.06441C9.53323 5.84572 9.17866 5.84572 8.95997 6.06441L6.98873 8.05297Z" fill="#696E80"/>
<path fill-rule="evenodd" clip-rule="evenodd" d="M7.55994 0.56C7.55994 0.250721 7.30922 0 6.99994 0C6.69066 0 6.43994 0.250721 6.43994 0.56V8.4C6.43994 8.70928 6.69066 8.96 6.99994 8.96C7.30922 8.96 7.55994 8.70928 7.55994 8.4V0.56Z" fill="#696E80"/>
</svg>
