<svg width="17" height="12" viewBox="0 0 17 12" fill="none" xmlns="http://www.w3.org/2000/svg">
<path d="M12.6667 0.888889C14.2622 0.888889 15.5556 2.18222 15.5556 3.77778C15.5556 5.37333 15.1111 11.1111 12.6667 11.1111C10.9953 11.1111 10.2593 8.42889 9.96067 6.22222H6.48378C6.18533 8.42889 5.44911 11.1111 3.77778 11.1111C1.33333 11.1111 0.888889 5.37333 0.888889 3.77778C0.888889 2.18222 2.18222 0.888889 3.77778 0.888889C4.34244 0.888889 4.86733 1.05333 5.31244 1.33333H11.132C11.5771 1.05333 12.102 0.888889 12.6667 0.888889ZM12.6667 0C12.0476 0 11.44 0.152889 10.8938 0.444444H5.55067C5.00444 0.152889 4.39711 0 3.77778 0C1.69467 0 0 1.69467 0 3.77778C0 4.11356 0.0428891 12 3.77778 12C4.99111 12 6.54178 11.1278 7.24556 7.11111H9.19867C9.90289 11.1278 11.4536 12 12.6667 12C16.4016 12 16.4444 4.11356 16.4444 3.77778C16.4444 1.69467 14.7498 0 12.6667 0ZM12.6667 1.77778C12.2984 1.77778 12 2.07622 12 2.44444C12 2.81267 12.2984 3.11111 12.6667 3.11111C13.0349 3.11111 13.3333 2.81267 13.3333 2.44444C13.3333 2.07622 13.0349 1.77778 12.6667 1.77778ZM12.6667 4.44444C12.2984 4.44444 12 4.74289 12 5.11111C12 5.47933 12.2984 5.77778 12.6667 5.77778C13.0349 5.77778 13.3333 5.47933 13.3333 5.11111C13.3333 4.74289 13.0349 4.44444 12.6667 4.44444ZM14.6667 3.77778C14.6667 3.40956 14.3682 3.11111 14 3.11111C13.6318 3.11111 13.3333 3.40956 13.3333 3.77778C13.3333 4.146 13.6318 4.44444 14 4.44444C14.3682 4.44444 14.6667 4.146 14.6667 3.77778ZM12 3.77778C12 3.40956 11.7016 3.11111 11.3333 3.11111C10.9651 3.11111 10.6667 3.40956 10.6667 3.77778C10.6667 4.146 10.9651 4.44444 11.3333 4.44444C11.7016 4.44444 12 4.146 12 3.77778ZM5.33333 3.33333H4.22222V2.22222H3.33333V3.33333H2.22222V4.22222H3.33333V5.33333H4.22222V4.22222H5.33333V3.33333Z" fill="white"/>
</svg>
