<?xml version="1.0" encoding="UTF-8" standalone="no"?>
<!--?xml version="1.0" encoding="utf-8"?-->

<!-- Generator: Adobe Illustrator 18.1.1, SVG Export Plug-In . SVG Version: 6.00 Build 0)  -->

<svg
   xmlns:dc="http://purl.org/dc/elements/1.1/"
   xmlns:cc="http://creativecommons.org/ns#"
   xmlns:rdf="http://www.w3.org/1999/02/22-rdf-syntax-ns#"
   xmlns:svg="http://www.w3.org/2000/svg"
   xmlns="http://www.w3.org/2000/svg"
   xmlns:sodipodi="http://sodipodi.sourceforge.net/DTD/sodipodi-0.dtd"
   xmlns:inkscape="http://www.inkscape.org/namespaces/inkscape"
   version="1.1"
   id="_x31_0"
   x="0px"
   y="0px"
   viewBox="0 0 30 28"
   style="opacity:1"
   xml:space="preserve"
   sodipodi:docname="login.svg"
   width="30"
   height="28"
   inkscape:version="0.92.4 (33fec40, 2019-01-16)"><metadata
   id="metadata19"><rdf:RDF><cc:Work
       rdf:about=""><dc:format>image/svg+xml</dc:format><dc:type
         rdf:resource="http://purl.org/dc/dcmitype/StillImage" /><dc:title></dc:title></cc:Work></rdf:RDF></metadata><defs
   id="defs17" /><sodipodi:namedview
   pagecolor="#ffffff"
   bordercolor="#666666"
   borderopacity="1"
   objecttolerance="10"
   gridtolerance="10"
   guidetolerance="10"
   inkscape:pageopacity="0"
   inkscape:pageshadow="2"
   inkscape:window-width="1344"
   inkscape:window-height="830"
   id="namedview15"
   showgrid="false"
   inkscape:pagecheckerboard="true"
   inkscape:zoom="7.375"
   inkscape:cx="35.537814"
   inkscape:cy="30.18847"
   inkscape:window-x="55"
   inkscape:window-y="0"
   inkscape:window-maximized="0"
   inkscape:current-layer="_x31_0" />
<style
   type="text/css"
   id="style2">
	.st0{fill:#374149;}
</style>
<g
   id="g12"
   transform="matrix(0.03350154,0,0,0.03350154,6.4236058,5.4236005)">
	<polygon
   class="st0"
   points="161.218,412.962 303.27,412.962 303.27,368.431 205.75,368.431 205.75,295.212 205.843,252.169 205.75,252.239 205.75,252.04 161.218,285.77 "
   style="fill:#ffffff"
   id="polygon4" />
	<polygon
   class="st0"
   points="449.329,1.946 161.218,1.946 161.218,129.137 205.75,162.868 205.75,46.477 376.688,46.477 415.95,22.41 449.329,2.11 449.067,2.11 "
   style="fill:#ffffff"
   id="polygon6" />
	<path
   class="st0"
   d="m 495.169,0.137 -0.086,0.05 V 0 l -5.175,3.172 -70.638,43.305 -89.379,54.828 c -2.707,1.66 -4.356,4.61 -4.356,7.782 v 259.345 44.531 89.894 c 0,7.137 7.821,11.512 13.902,7.782 l 148.926,-91.332 c 4.176,-2.559 6.718,-7.102 6.718,-12 V 139.387 Z M 356.371,273.302 v -25.824 c 0,-3.118 1.282,-5.958 3.34,-7.961 2.004,-2.059 4.844,-3.34 7.961,-3.34 6.234,0 11.301,5.066 11.301,11.301 v 25.824 c 0,6.234 -5.066,11.301 -11.301,11.301 -6.234,-0.001 -11.301,-5.067 -11.301,-11.301 z"
   style="fill:#ffffff"
   id="path8"
   inkscape:connector-curvature="0" />
	<path
   class="st0"
   d="m 205.75,224.153 15.195,-11.523 c 3.395,-2.614 3.395,-7.734 0,-10.351 l -15.195,-11.524 -44.531,-33.73 -29.332,-22.211 c -1.226,-0.89 -2.562,-1.278 -3.898,-1.278 -3.34,0 -6.512,2.614 -6.512,6.458 v 28.778 c 0,3.562 -2.894,6.511 -6.457,6.511 H 23.343 c -3.622,0 -6.512,2.894 -6.512,6.458 v 51.43 c 0,3.562 2.89,6.515 6.512,6.515 h 91.676 c 3.562,0 6.457,2.895 6.457,6.458 v 28.778 c 0,3.839 3.172,6.511 6.512,6.511 1.336,0 2.672,-0.445 3.898,-1.336 l 29.332,-22.21 z"
   style="fill:#ffffff"
   id="path10"
   inkscape:connector-curvature="0" />
</g>
</svg>