<svg width="16" height="13" viewBox="0 0 16 13" fill="none" xmlns="http://www.w3.org/2000/svg">
<path d="M3.01264 0.665557V2.10934H0.533377C0.251053 2.10934 0 2.35839 0 2.6385V10.2739C0 11.3879 0.916389 12.2965 2.0397 12.2965H13.9031C15.0264 12.2965 15.943 11.3879 15.943 10.2739V0.528942C15.943 0.255267 15.6917 1.11721e-07 15.4094 1.11721e-07H3.58394C3.21978 -0.000221667 3.01264 0.329785 3.01264 0.665557ZM4.07341 1.05766H14.8822V10.2739C14.8822 10.8217 14.4553 11.2448 13.9031 11.2448H3.82257C3.97937 10.9523 4.07341 10.6287 4.07341 10.2739V1.05766ZM5.61122 2.10934C5.35396 2.13417 5.13417 2.37702 5.13417 2.6385V5.09647C5.13417 5.37015 5.39144 5.62541 5.66777 5.62541H8.32911C8.61144 5.62541 8.86249 5.37037 8.86249 5.09647V2.6385C8.86249 2.35839 8.61144 2.10934 8.32911 2.10934H5.61122ZM10.3943 2.10934C10.1182 2.12198 9.87314 2.38944 9.89199 2.66312C9.90463 2.94322 10.1745 3.17964 10.4509 3.16101H13.2879C13.5642 3.16722 13.8279 2.91816 13.8279 2.6385C13.8279 2.35839 13.5644 2.10313 13.2879 2.10934H10.3943ZM1.06077 3.16101H3.01264V10.2737C3.01264 10.8215 2.58594 11.2446 2.0397 11.2446C1.49368 11.2446 1.07341 10.8277 1.06077 10.2925V3.16101ZM6.20159 3.16101H7.80217V4.56753H6.20159V3.16101ZM10.3943 4.56753C10.1182 4.58616 9.87957 4.84763 9.89199 5.12131C9.91084 5.39498 10.1745 5.63783 10.4509 5.62519H13.2879C13.5642 5.62519 13.8279 5.37636 13.8279 5.09625C13.8279 4.81614 13.5644 4.56731 13.2879 4.56731H10.3943V4.56753ZM5.61122 6.85118C5.3351 6.86382 5.09647 7.13129 5.10889 7.40518C5.12153 7.68529 5.39121 7.92148 5.66777 7.90286H13.2876C13.564 7.90907 13.8212 7.65402 13.8212 7.38035C13.8212 7.10024 13.564 6.84519 13.2876 6.85118H5.61122ZM5.61122 9.13506C5.3351 9.1477 5.09647 9.41516 5.10889 9.68906C5.12153 9.96274 5.39121 10.2054 5.66777 10.1867H13.2876C13.564 10.1929 13.8212 9.93789 13.8212 9.66422C13.8212 9.38411 13.564 9.12907 13.2876 9.13506H5.61122Z" fill="white"/>
</svg>
