<?xml version="1.0" encoding="utf-8"?>
<!-- Generator: Adobe Illustrator 24.1.1, SVG Export Plug-In . SVG Version: 6.00 Build 0)  -->
<svg version="1.1" id="Layer_1" xmlns="http://www.w3.org/2000/svg" xmlns:xlink="http://www.w3.org/1999/xlink" x="0px" y="0px"
	 height="38" width="38" viewBox="0 0 612 792" style="enable-background:new 0 0 612 792;" xml:space="preserve">
<style type="text/css">
	.st0{fill:#FFFFFF;}
	.st1{fill:none;stroke:#000000;stroke-miterlimit:10;}
	.st2{fill:#F8F8F8;}
</style>
<g>
	<g>
		<path class="st0" d="M422.8,328.8c-2.7-2.4-5.4-4.7-8.2-7.1c-5.1-4.5-10.2-8.9-15.3-13.4c-1-0.8-1.4-1.7-1.4-3
			c0-13.7,0-27.5,0-41.2c0-6.4-4.1-11.4-10.4-12.7c-0.8-0.2-1.7-0.2-2.5-0.2c-28.6,0-57.3,0-85.9,0c-24.9,0-49.7,0-74.6,0
			c-5.1,0-10.2,0-15.3,0c-7.2,0-12.7,5.3-12.7,12.6c-0.1,9.9,0,19.9,0,29.8c0,11.2,0,22.5,0,33.7c0,11.3,0,22.6,0,33.9
			c0,11.3,0,22.6,0,33.9c0,11.4,0,22.7,0,34.1c0,11.2,0,22.5,0,33.7c0,11.4,0,22.7,0,34.1c0,6.1,0.1,12.2,0,18.3
			c-0.1,5.8,4.2,11.2,9.8,12.2c2,0.4,4,0.4,6.1,0.4c15.8,0,31.6,0,47.5,0s31.6,0,47.5,0c15.8,0,31.6,0,47.5,0c10,0,20,0,30,0
			c3.9,0,7.3-1.2,10-4.2c2.3-2.5,3.2-5.5,3.2-8.9c0-13.6,0-27.2,0-40.9c0-1.4,0.4-2.3,1.4-3.2c7.3-6.3,14.5-12.6,21.7-18.9
			c0.6-0.5,1.2-1,2-1.7c0.1,0.7,0.2,1.1,0.2,1.5c0,21.5,0.1,43.1,0,64.6c-0.1,17.9-13.5,33.4-31.2,36.3c-2.5,0.4-5,0.6-7.6,0.6
			c-42.6,0-85.2,0-127.8,0c-15.8,0-31.6,0.1-47.5,0c-12-0.1-21.9-4.8-29.5-14.1c-5.5-6.7-8.3-14.6-8.4-23.3c-0.1-26.7,0-53.5,0-80.2
			c0-24.9,0-49.7,0-74.6c0-24.9,0-49.7,0-74.6c0-7.7-0.1-15.5,0-23.2c0.1-16,10.6-30.4,25.8-35.5c4.2-1.4,8.4-2,12.8-2
			c28,0,55.9,0,83.9,0c29.4,0,58.8,0,88.1,0c5.9,0,11.6,0.4,17.1,2.5c14.4,5.5,24.2,19.4,24.2,34.8c0.1,21.2,0,42.4,0,63.6
			c0,0.6,0,1.2,0,1.8C423.1,328.7,422.9,328.8,422.8,328.8z"/>
		<path class="st0" d="M334.8,427.5c-1,0-2,0-2.9,0c-24,0-48,0-72,0c-6.6,0-11.7-4.2-12.9-10.7c-0.1-0.7-0.1-1.3-0.1-2
			c0-16.7,0-33.3,0-50c0-7.5,5.5-13,12.9-13c20.1,0,40.2,0,60.3,0c4.9,0,9.7,0,14.8,0c0-0.7,0.1-1.2,0.1-1.8c0-9.9,0-19.8,0-29.7
			c0-2.8,0.2-5.7,1.4-8.3c2.1-4.8,6.3-5.8,10.7-4.5c0.6,0.2,1.2,0.7,1.7,1.1c8,6.9,16.1,13.9,24.1,20.8
			c18.2,15.8,36.5,31.6,54.7,47.4c4.5,3.9,9,7.8,13.6,11.8c0.3,0.3,0.8,0.5,1.3,0.8c-1.1,1-1.9,1.7-2.6,2.3
			c-21.5,18.6-43,37.2-64.4,55.8c-8.7,7.5-17.4,15.1-26.1,22.7c-1.6,1.4-3.3,1.8-5.3,1.6c-4.9-0.5-8.2-3.7-8.6-8.9
			c-0.4-4.4-0.3-8.8-0.4-13.2c-0.1-6.7,0-13.4,0-20.2C334.9,429,334.9,428.4,334.8,427.5z"/>
	</g>
	<g>
		<path class="st1" d="M422.8,328.8c-2.7-2.4-5.4-4.7-8.2-7.1c-5.1-4.5-10.2-8.9-15.3-13.4c-1-0.8-1.4-1.7-1.4-3
			c0-13.7,0-27.5,0-41.2c0-6.4-4.1-11.4-10.4-12.7c-0.8-0.2-1.7-0.2-2.5-0.2c-28.6,0-57.3,0-85.9,0c-24.9,0-49.7,0-74.6,0
			c-5.1,0-10.2,0-15.3,0c-7.2,0-12.7,5.3-12.7,12.6c-0.1,9.9,0,19.9,0,29.8c0,11.2,0,22.5,0,33.7c0,11.3,0,22.6,0,33.9
			c0,11.3,0,22.6,0,33.9c0,11.4,0,22.7,0,34.1c0,11.2,0,22.5,0,33.7c0,11.4,0,22.7,0,34.1c0,6.1,0.1,12.2,0,18.3
			c-0.1,5.8,4.2,11.2,9.8,12.2c2,0.4,4,0.4,6.1,0.4c15.8,0,31.6,0,47.5,0s31.6,0,47.5,0c15.8,0,31.6,0,47.5,0c10,0,20,0,30,0
			c3.9,0,7.3-1.2,10-4.2c2.3-2.5,3.2-5.5,3.2-8.9c0-13.6,0-27.2,0-40.9c0-1.4,0.4-2.3,1.4-3.2c7.3-6.3,14.5-12.6,21.7-18.9
			c0.6-0.5,1.2-1,2-1.7c0.1,0.7,0.2,1.1,0.2,1.5c0,21.5,0.1,43.1,0,64.6c-0.1,17.9-13.5,33.4-31.2,36.3c-2.5,0.4-5,0.6-7.6,0.6
			c-42.6,0-85.2,0-127.8,0c-15.8,0-31.6,0.1-47.5,0c-12-0.1-21.9-4.8-29.5-14.1c-5.5-6.7-8.3-14.6-8.4-23.3c-0.1-26.7,0-53.5,0-80.2
			c0-24.9,0-49.7,0-74.6c0-24.9,0-49.7,0-74.6c0-7.7-0.1-15.5,0-23.2c0.1-16,10.6-30.4,25.8-35.5c4.2-1.4,8.4-2,12.8-2
			c28,0,55.9,0,83.9,0c29.4,0,58.8,0,88.1,0c5.9,0,11.6,0.4,17.1,2.5c14.4,5.5,24.2,19.4,24.2,34.8c0.1,21.2,0,42.4,0,63.6
			c0,0.6,0,1.2,0,1.8C423.1,328.7,422.9,328.8,422.8,328.8z"/>
		<path class="st2" d="M334.8,427.5c-1,0-2,0-2.9,0c-24,0-48,0-72,0c-6.6,0-11.7-4.2-12.9-10.7c-0.1-0.7-0.1-1.3-0.1-2
			c0-16.7,0-33.3,0-50c0-7.5,5.5-13,12.9-13c20.1,0,40.2,0,60.3,0c4.9,0,9.7,0,14.8,0c0-0.7,0.1-1.2,0.1-1.8c0-9.9,0-19.8,0-29.7
			c0-2.8,0.2-5.7,1.4-8.3c2.1-4.8,6.3-5.8,10.7-4.5c0.6,0.2,1.2,0.7,1.7,1.1c8,6.9,16.1,13.9,24.1,20.8
			c18.2,15.8,36.5,31.6,54.7,47.4c4.5,3.9,9,7.8,13.6,11.8c0.3,0.3,0.8,0.5,1.3,0.8c-1.1,1-1.9,1.7-2.6,2.3
			c-21.5,18.6-43,37.2-64.4,55.8c-8.7,7.5-17.4,15.1-26.1,22.7c-1.6,1.4-3.3,1.8-5.3,1.6c-4.9-0.5-8.2-3.7-8.6-8.9
			c-0.4-4.4-0.3-8.8-0.4-13.2c-0.1-6.7,0-13.4,0-20.2C334.9,429,334.9,428.4,334.8,427.5z"/>
	</g>
</g>
</svg>
