<svg width="12" height="12" viewBox="0 0 12 12" fill="none" xmlns="http://www.w3.org/2000/svg">
<path d="M4.5 9C2.019 9 0 6.9815 0 4.5C0 2.019 2.019 0 4.5 0C6.9815 0 9 2.019 9 4.5C9 6.9815 6.9815 9 4.5 9ZM4.5 1C2.57 1 1 2.57 1 4.5C1 6.43 2.57 8 4.5 8C6.43 8 8 6.43 8 4.5C8 2.57 6.43 1 4.5 1ZM11.5 12C11.372 12 11.244 11.951 11.1465 11.8535L7.1465 7.8535C6.951 7.658 6.951 7.342 7.1465 7.1465C7.342 6.951 7.658 6.951 7.8535 7.1465L11.8535 11.1465C12.049 11.342 12.049 11.658 11.8535 11.8535C11.756 11.951 11.628 12 11.5 12Z" fill="white"/>
</svg>
