<svg width="20" height="20" viewBox="0 0 20 20" fill="none" xmlns="http://www.w3.org/2000/svg">
<path fill-rule="evenodd" clip-rule="evenodd" d="M11.3431 12.9732C11.2938 13.0038 11.2357 13.0284 11.179 13.0417C8.95172 13.569 7.58727 12.3888 7.09648 11.218C6.6052 10.0472 6.71903 8.24707 8.65656 7.02746C8.70485 6.99642 8.763 6.97227 8.81917 6.95897C9.19662 6.86928 9.54796 6.82888 9.87564 6.82888C11.484 6.82888 12.4956 7.8085 12.9036 8.78172C13.3954 9.95353 13.2816 11.7541 11.3431 12.9732ZM19.5076 11.6899L18.5216 10.8074C18.4172 10.7138 18.3571 10.5802 18.3571 10.4403V9.47593C18.3571 9.33747 18.4157 9.20491 18.5182 9.11178L19.4924 8.2243C19.9531 7.80397 20.1009 7.13528 19.8595 6.55973L19.3628 5.37609C19.1223 4.80103 18.5477 4.43934 17.918 4.47187L16.5634 4.54726C16.421 4.55711 16.2678 4.49601 16.1672 4.38267L15.5207 3.65535C15.4355 3.55876 15.3911 3.43409 15.3971 3.30498L15.4567 2.03217C15.4853 1.40881 15.1167 0.831288 14.5392 0.595251L13.3511 0.109378C12.7726 -0.126166 12.1059 0.0265929 11.69 0.491767L10.807 1.47879C10.7139 1.58276 10.5803 1.64238 10.4404 1.64238H9.47606C9.3376 1.64238 9.20456 1.58375 9.11193 1.48174L8.22446 0.507537C7.80463 0.0463049 7.13547 -0.101036 6.55992 0.139928L5.37583 0.636645C4.80078 0.878101 4.43761 1.45858 4.4726 2.08194L4.54552 3.40354C4.5534 3.54349 4.50118 3.67999 4.40213 3.77903L3.71967 4.46102C3.6221 4.55908 3.48708 4.61624 3.34862 4.60491L2.03197 4.54332C1.4106 4.51572 0.832091 4.88333 0.595567 5.46085L0.109712 6.64892C-0.126812 7.22644 0.0274255 7.89415 0.492097 8.31004L1.47859 9.19259C1.58306 9.28572 1.64269 9.41976 1.64269 9.5597V10.5245C1.64269 10.6625 1.58405 10.7951 1.48155 10.8887L0.507859 11.7762C0.0466373 12.196 -0.101192 12.8652 0.14026 13.4403L0.636964 14.6239C0.878416 15.1994 1.45298 15.5621 2.08223 15.5281L3.40331 15.4547C3.55015 15.4493 3.68073 15.4995 3.77928 15.5981L4.46077 16.2801C4.55883 16.3776 4.61156 16.5132 4.60466 16.6516L4.54355 17.9678C4.51448 18.5912 4.88306 19.1687 5.46057 19.4047L6.64862 19.8906C6.82996 19.9645 7.01917 20 7.20691 20C7.61984 20 8.0244 19.8275 8.3102 19.5077L9.19274 18.5217C9.28587 18.4177 9.41989 18.3576 9.55983 18.3576H10.5242C10.6626 18.3576 10.7957 18.4162 10.8883 18.5182L11.7758 19.4924C12.1956 19.9532 12.8658 20.101 13.4403 19.8601L14.6239 19.3633C15.1995 19.1214 15.5626 18.5409 15.5281 17.9176L15.4547 16.5974C15.4468 16.4575 15.4991 16.32 15.5986 16.221L16.2806 15.5385C16.3781 15.4409 16.5151 15.3842 16.6516 15.3951L17.9673 15.4562C18.5906 15.4833 19.1686 15.1172 19.4047 14.5391L19.8905 13.3511C20.1266 12.7735 19.9728 12.1058 19.5076 11.6899ZM18.9779 12.978L18.4926 14.1661C18.4137 14.3588 18.2137 14.4889 18.0136 14.4716L16.6975 14.4105C16.287 14.3943 15.8765 14.5485 15.5833 14.8422L14.9018 15.5242C14.6047 15.8213 14.448 16.2318 14.4712 16.6516L14.5446 17.9723C14.5559 18.1802 14.4347 18.3739 14.243 18.4542L13.0589 18.9509C12.8677 19.0307 12.644 18.9819 12.5041 18.8287L11.6171 17.8545C11.3377 17.548 10.9396 17.3721 10.5242 17.3721H9.55983C9.14 17.3721 8.7389 17.5514 8.45802 17.8643L7.575 18.8509C7.43703 19.0056 7.2148 19.0573 7.02213 18.978L5.83409 18.4921C5.64142 18.4138 5.51872 18.2211 5.52808 18.0131L5.58919 16.6975C5.60841 16.283 5.45171 15.877 5.15802 15.5833L4.47605 14.9013C4.19862 14.6239 3.82117 14.4682 3.42992 14.4682C3.40331 14.4682 3.37572 14.4692 3.34862 14.4706L2.02753 14.5441C1.80874 14.5564 1.62593 14.4347 1.54561 14.243L1.04891 13.0594C0.968586 12.8672 1.01835 12.6444 1.1716 12.5045L2.14578 11.617C2.45228 11.3371 2.62821 10.939 2.62821 10.5245V9.5597C2.62821 9.13888 2.44834 8.73776 2.13544 8.45787L1.14943 7.57581C0.994704 7.43685 0.94296 7.21461 1.02229 7.02194L1.50816 5.83338C1.58651 5.6412 1.79692 5.51506 1.98663 5.52787L3.30278 5.58947C3.72557 5.60622 4.12322 5.45099 4.41641 5.15779L5.09889 4.4758C5.39652 4.17866 5.55322 3.7677 5.52907 3.34835L5.45615 2.02724C5.44432 1.81929 5.56554 1.62612 5.75722 1.5458L6.94083 1.04909C7.13153 0.968275 7.35474 1.01755 7.49567 1.1713L8.38313 2.1455C8.66204 2.45201 9.06067 2.62792 9.47606 2.62792H10.4404C10.8607 2.62792 11.2623 2.44806 11.5417 2.13564L12.4242 1.14912C12.5617 0.994395 12.7859 0.941665 12.9776 1.02149L14.1657 1.50737C14.3588 1.58621 14.4815 1.77838 14.4717 1.98633L14.4125 3.25916C14.3943 3.64648 14.5268 4.0195 14.7845 4.30974L15.431 5.03707C15.7321 5.37659 16.1682 5.55349 16.6181 5.53132L17.9727 5.45593C18.188 5.44262 18.3738 5.56581 18.4546 5.757L18.9508 6.94113C19.0311 7.13281 18.9819 7.35555 18.8281 7.49599L17.8545 8.38297C17.548 8.66286 17.3715 9.06102 17.3715 9.47593V10.4403C17.3715 10.8601 17.5509 11.2617 17.8643 11.5416L18.8503 12.4242C19.0055 12.5631 19.0568 12.7854 18.9779 12.978ZM8.59201 6.00004C8.43088 6.03798 8.27171 6.10499 8.13078 6.1932C5.8301 7.64194 5.49699 9.95253 6.18735 11.5994C6.76191 12.9693 8.15986 14.1549 10.1368 14.1549C10.5364 14.1549 10.9607 14.1061 11.4062 14.0006C11.5673 13.9627 11.7264 13.8962 11.8669 13.808C14.17 12.3592 14.5036 10.0481 13.8128 8.40032C13.1215 6.75299 11.2406 5.37225 8.59201 6.00004Z" fill="#696E80"/>
</svg>
