<svg width="18" height="17" viewBox="0 0 18 17" fill="none" xmlns="http://www.w3.org/2000/svg">
<path d="M17.5216 6.08781L11.8666 5.43485L9.49179 0.312229C9.4486 0.219054 9.3793 0.140108 9.29212 0.0847632C9.20495 0.0294186 9.10357 0 9.00001 0C8.89645 0 8.79507 0.0294186 8.7079 0.0847632C8.62072 0.140108 8.55142 0.219054 8.50823 0.312229L6.13345 5.43485L0.478396 6.08781C0.375538 6.09969 0.278282 6.14054 0.198178 6.20551C0.118073 6.27048 0.0584828 6.35685 0.0264825 6.45435C-0.00551773 6.55185 -0.00858418 6.6564 0.0176472 6.75557C0.0438786 6.85475 0.0983061 6.94439 0.174468 7.01385L4.36181 10.8328L3.24159 16.3589C3.22121 16.4595 3.2304 16.5636 3.26806 16.6591C3.30572 16.7546 3.37027 16.8374 3.45405 16.8977C3.53783 16.958 3.63731 16.9931 3.7407 16.9991C3.84408 17.005 3.94701 16.9815 4.03728 16.9313L9 14.1689L13.9627 16.9313C14.053 16.9815 14.1559 17.005 14.2593 16.9991C14.3627 16.9931 14.4622 16.958 14.5459 16.8977C14.6297 16.8374 14.6943 16.7546 14.7319 16.6591C14.7696 16.5636 14.7788 16.4595 14.7584 16.3589L13.6382 10.8328L17.8255 7.01385C17.9017 6.94439 17.9561 6.85475 17.9824 6.75557C18.0086 6.6564 18.0055 6.55185 17.9735 6.45435C17.9415 6.35685 17.8819 6.27048 17.8018 6.20551C17.7217 6.14054 17.6245 6.09969 17.5216 6.08781Z" fill="white"/>
</svg>
