<svg width="14" height="13" viewBox="0 0 14 13" fill="none" xmlns="http://www.w3.org/2000/svg">
<path d="M13.6279 4.65538L9.22955 4.15606L7.38251 0.238763C7.34891 0.167512 7.29501 0.107141 7.22721 0.0648189C7.15941 0.0224966 7.08055 0 7.00001 0C6.91946 0 6.84061 0.0224966 6.77281 0.0648189C6.70501 0.107141 6.65111 0.167512 6.61751 0.238763L4.77046 4.15606L0.372086 4.65538C0.292085 4.66447 0.216442 4.69571 0.154138 4.74539C0.0918344 4.79508 0.0454866 4.86112 0.0205975 4.93568C-0.00429157 5.01024 -0.00667658 5.09019 0.0137256 5.16603C0.0341278 5.24187 0.0764603 5.31041 0.135697 5.36353L3.39252 8.28388L2.52124 12.5098C2.50539 12.5866 2.51253 12.6663 2.54182 12.7393C2.57112 12.8124 2.62132 12.8757 2.68648 12.9218C2.75164 12.9678 2.82902 12.9948 2.90943 12.9993C2.98984 13.0039 3.0699 12.9859 3.14011 12.9474L7 10.835L10.8599 12.9474C10.9301 12.9859 11.0102 13.0039 11.0906 12.9993C11.171 12.9948 11.2484 12.9678 11.3135 12.9218C11.3787 12.8757 11.4289 12.8124 11.4582 12.7393C11.4875 12.6663 11.4946 12.5866 11.4788 12.5098L10.6075 8.28388L13.8643 5.36353C13.9235 5.31041 13.9659 5.24187 13.9863 5.16603C14.0067 5.09019 14.0043 5.01024 13.9794 4.93568C13.9545 4.86112 13.9082 4.79508 13.8459 4.74539C13.7836 4.69571 13.7079 4.66447 13.6279 4.65538Z" fill="#10132B"/>
</svg>
