<?xml version="1.0" encoding="UTF-8" standalone="no"?>
<svg
   xmlns:osb="http://www.openswatchbook.org/uri/2009/osb"
   xmlns:dc="http://purl.org/dc/elements/1.1/"
   xmlns:cc="http://creativecommons.org/ns#"
   xmlns:rdf="http://www.w3.org/1999/02/22-rdf-syntax-ns#"
   xmlns:svg="http://www.w3.org/2000/svg"
   xmlns="http://www.w3.org/2000/svg"
   xmlns:sodipodi="http://sodipodi.sourceforge.net/DTD/sodipodi-0.dtd"
   xmlns:inkscape="http://www.inkscape.org/namespaces/inkscape"
   width="18"
   height="17"
   viewBox="0 0 18 17"
   fill="none"
   version="1.1"
   id="svg4"
   sodipodi:docname="star-empty.svg"
   inkscape:version="0.92.4 (33fec40, 2019-01-16)"
   enable-background="new">
  <metadata
     id="metadata10">
    <rdf:RDF>
      <cc:Work
         rdf:about="">
        <dc:format>image/svg+xml</dc:format>
        <dc:type
           rdf:resource="http://purl.org/dc/dcmitype/StillImage" />
        <dc:title></dc:title>
      </cc:Work>
    </rdf:RDF>
  </metadata>
  <defs
     id="defs8">
    <linearGradient
       id="linearGradient6082"
       osb:paint="solid">
      <stop
         style="stop-color:#10132b;stop-opacity:1;"
         offset="0"
         id="stop6080" />
    </linearGradient>
  </defs>
  <sodipodi:namedview
     pagecolor="#ffffff"
     bordercolor="#666666"
     borderopacity="1"
     objecttolerance="10"
     gridtolerance="10"
     guidetolerance="10"
     inkscape:pageopacity="0"
     inkscape:pageshadow="2"
     inkscape:window-width="1867"
     inkscape:window-height="1052"
     id="namedview6"
     showgrid="false"
     inkscape:zoom="27.764706"
     inkscape:cx="5.6974857"
     inkscape:cy="4.6402997"
     inkscape:window-x="53"
     inkscape:window-y="0"
     inkscape:window-maximized="1"
     inkscape:current-layer="layer1"
     inkscape:pagecheckerboard="true" />
  <g
     inkscape:groupmode="layer"
     id="layer1"
     inkscape:label="Layer 1"
     style="display:inline;opacity:1;">
    <path
       style="fill:#ffffff;fill-opacity:1"
       d="M 9 0 C 8.89644 0 8.7942013 0.028639775 8.7070312 0.083984375 C 8.6198512 0.13932917 8.5510025 0.219325 8.5078125 0.3125 L 6.1328125 5.4355469 L 0.47851562 6.0878906 C 0.37565762 6.0997706 0.27736962 6.1401081 0.19726562 6.2050781 C 0.11716063 6.2700481 0.05934405 6.3575781 0.02734375 6.4550781 C -0.00465648 6.5525781 -0.008653255 6.6566894 0.017578125 6.7558594 C 0.043809525 6.8550394 0.097666225 6.9442119 0.17382812 7.0136719 L 4.3613281 10.832031 L 3.2421875 16.359375 C 3.2218075 16.459975 3.2299181 16.562703 3.2675781 16.658203 C 3.3052381 16.753703 3.369345 16.838137 3.453125 16.898438 C 3.536905 16.958738 3.6368444 16.994 3.7402344 17 C 3.8436144 17.0059 3.9468394 16.981841 4.0371094 16.931641 L 9 14.167969 L 13.962891 16.931641 C 14.053191 16.981841 14.156366 17.0059 14.259766 17 C 14.363166 16.994 14.463175 16.958737 14.546875 16.898438 C 14.630675 16.838137 14.694822 16.753703 14.732422 16.658203 C 14.770122 16.562703 14.778213 16.459975 14.757812 16.359375 L 13.638672 10.832031 L 17.826172 7.0136719 C 17.902372 6.9442119 17.956122 6.8550394 17.982422 6.7558594 C 18.008622 6.6566894 18.004656 6.5525781 17.972656 6.4550781 C 17.940656 6.3575781 17.882834 6.2700481 17.802734 6.2050781 C 17.722634 6.1401081 17.624384 6.0997706 17.521484 6.0878906 L 11.867188 5.4355469 L 9.4921875 0.3125 C 9.4489975 0.219325 9.3801487 0.13932917 9.2929688 0.083984375 C 9.2057987 0.028639775 9.10356 9.2518585e-18 9 0 z M 9.0039062 1.9277344 C 9.0844462 1.9277344 9.1626687 1.9498655 9.2304688 1.9921875 C 9.2982688 2.0345096 9.3531188 2.0947646 9.3867188 2.1660156 L 11.234375 6.0839844 L 15.632812 6.5839844 C 15.712812 6.5930744 15.787309 6.6241481 15.849609 6.6738281 C 15.911909 6.7235181 15.959475 6.7887213 15.984375 6.8632812 C 16.009275 6.9378412 16.010634 7.01791 15.990234 7.09375 C 15.969834 7.16959 15.928341 7.2378956 15.869141 7.2910156 L 12.611328 10.210938 L 13.482422 14.4375 C 13.498222 14.5143 13.492191 14.594969 13.462891 14.667969 C 13.433591 14.741069 13.383559 14.803509 13.318359 14.849609 C 13.253259 14.895609 13.176103 14.923234 13.095703 14.927734 C 13.015303 14.932334 12.933481 14.9135 12.863281 14.875 L 9.0039062 12.763672 L 5.1445312 14.875 C 5.0743213 14.9135 4.9944725 14.932334 4.9140625 14.927734 C 4.8336525 14.923234 4.7565662 14.895609 4.6914062 14.849609 C 4.6262463 14.803509 4.576175 14.741069 4.546875 14.667969 C 4.517585 14.594969 4.5095406 14.5143 4.5253906 14.4375 L 5.3964844 10.210938 L 2.140625 7.2910156 C 2.0813886 7.2378956 2.0379801 7.16959 2.0175781 7.09375 C 1.9971741 7.01791 2.0005016 6.9378412 2.0253906 6.8632812 C 2.0502797 6.7887212 2.0958991 6.7235181 2.1582031 6.6738281 C 2.2205071 6.6241481 2.2969521 6.5930744 2.3769531 6.5839844 L 6.7753906 6.0839844 L 8.6210938 2.1660156 C 8.6546937 2.0947646 8.7095437 2.0345095 8.7773438 1.9921875 C 8.8451438 1.9498655 8.9233562 1.9277344 9.0039062 1.9277344 z "
       id="path2" />
  </g>
  <g
     inkscape:groupmode="layer"
     id="layer2"
     inkscape:label="Layer 2"
     style="display:inline" />
</svg>
