<svg width="14" height="14" viewBox="0 0 14 14" fill="none" xmlns="http://www.w3.org/2000/svg">
<path d="M1 5.08368V1.94858C1 1.42465 1.42465 1 1.94858 1H5.08368C5.60761 1 6.03226 1.42465 6.03226 1.94858V5.08368C6.03226 5.60761 5.60761 6.03226 5.08368 6.03226H1.94858C1.42465 6.03226 1 5.60761 1 5.08368Z" stroke="#696E80" stroke-width="0.8" stroke-miterlimit="10" stroke-linecap="round" stroke-linejoin="round"/>
<path d="M1 12.0515V8.91635C1 8.39242 1.42465 7.96777 1.94858 7.96777H5.08368C5.60761 7.96777 6.03226 8.39242 6.03226 8.91635V12.0515C6.03226 12.5754 5.60761 13 5.08368 13H1.94858C1.42465 13 1 12.5754 1 12.0515Z" stroke="#696E80" stroke-width="0.8" stroke-miterlimit="10" stroke-linecap="round" stroke-linejoin="round"/>
<path d="M7.96777 5.08368V1.94858C7.96777 1.42465 8.39242 1 8.91635 1H12.0515C12.5754 1 13 1.42465 13 1.94858V5.08368C13 5.60761 12.5754 6.03226 12.0515 6.03226H8.91635C8.39242 6.03226 7.96777 5.60761 7.96777 5.08368Z" stroke="#696E80" stroke-width="0.8" stroke-miterlimit="10" stroke-linecap="round" stroke-linejoin="round"/>
<path d="M7.96777 12.0515V8.91635C7.96777 8.39242 8.39242 7.96777 8.91635 7.96777H12.0515C12.5754 7.96777 13 8.39242 13 8.91635V12.0515C13 12.5754 12.5754 13 12.0515 13H8.91635C8.39242 13 7.96777 12.5754 7.96777 12.0515Z" stroke="#696E80" stroke-width="0.8" stroke-miterlimit="10" stroke-linecap="round" stroke-linejoin="round"/>
</svg>
