<svg width="11" height="12" viewBox="0 0 11 12" fill="none" xmlns="http://www.w3.org/2000/svg">
<path d="M7.54638 6.02243C8.27975 5.4 8.75 4.45213 8.75 3.3913C8.75 1.52139 7.292 0 5.5 0C3.70775 0 2.25 1.52139 2.25 3.3913C2.25 4.45213 2.71975 5.4 3.45312 6.02243C1.50637 6.56687 0 7.82178 0 9.13043V10.9565C0 11.532 0.4485 12 1 12H10C10.5513 12 11 11.532 11 10.9565V9.13043C11 7.82178 9.49363 6.56687 7.54638 6.02243ZM3.25 3.3913C3.25 2.09661 4.25925 1.04348 5.5 1.04348C6.7405 1.04348 7.75 2.09661 7.75 3.3913C7.75 4.686 6.7405 5.73913 5.5 5.73913C4.25925 5.73913 3.25 4.686 3.25 3.3913ZM1 10.9565V9.13043C1 8.20696 2.93213 6.78261 5.5 6.78261C8.06738 6.78261 10 8.20696 10 9.13043L10.0005 10.9565H1Z" fill="#696E80"/>
</svg>
