<svg width="25" height="31" viewBox="0 0 25 31" fill="none" xmlns="http://www.w3.org/2000/svg">
<path d="M17.7254 1.21385C12.8344 -1.1363 7.1461 0.0479762 3.54684 3.715C2.32563 4.9583 2.76566 7.06086 4.33186 7.81972L4.37785 7.84195C5.38825 8.33405 6.6432 8.21907 7.43588 7.42189C8.45754 6.39634 9.7722 5.7129 11.1986 5.46579C12.6251 5.21867 14.0931 5.42005 15.4002 6.04216C16.7229 6.67936 17.8144 7.71252 18.5232 8.99821C19.2319 10.2839 19.5227 11.7583 19.3552 13.2168C19.2218 14.3466 19.9171 15.4159 20.9398 15.9157C22.5091 16.6822 24.4386 15.7279 24.6648 13.9994C25.3386 8.82922 22.67 3.5686 17.7254 1.21385Z" fill="#673BB7"/>
<path d="M12.659 16.5123C15.0908 16.5123 17.0622 14.5409 17.0622 12.1091C17.0622 9.67733 15.0908 7.70596 12.659 7.70596C10.2272 7.70596 8.25584 9.67733 8.25584 12.1091C8.25584 14.5409 10.2272 16.5123 12.659 16.5123Z" fill="#E920D7"/>
<path fill-rule="evenodd" clip-rule="evenodd" d="M17.2452 17.4296C18.0409 16.65 19.2821 16.5458 20.2825 17.0333L20.3139 17.0494C21.9606 17.8511 22.2719 20.0403 20.9518 21.3104C19.1374 23.0572 16.8325 24.2078 14.3459 24.6082C11.8592 25.0087 9.30959 24.6398 7.03847 23.551C6.49893 23.294 5.98701 23.0029 5.50395 22.6814V28.0706C5.50395 29.5904 4.27185 30.8225 2.75198 30.8225C1.2321 30.8225 0 29.5904 0 28.0706V12.3651C0 12.3412 0.00328282 12.318 0.00942265 12.296C0.0110379 11.851 0.0366137 11.4063 0.0860451 10.964C0.288431 9.21246 2.23027 8.22902 3.81486 9.0009L3.95975 9.07142C4.90345 9.53287 5.54281 10.5247 5.41632 11.571C5.38409 11.8373 5.36796 12.1053 5.36802 12.3736C5.36496 12.4692 5.37086 12.565 5.38565 12.6595C5.38819 12.8567 5.40994 13.0484 5.43168 13.2402C5.44273 13.3377 5.45379 13.4351 5.46231 13.5333C5.67274 14.793 6.22317 15.9712 7.05422 16.941C7.88526 17.9107 8.96538 18.6352 10.178 19.0362C11.3907 19.4372 12.6898 19.4994 13.9352 19.2163C15.1807 18.9332 16.3251 18.3154 17.2452 17.4296Z" fill="#2B6DF9"/>
</svg>
