<svg id="Capa_1" data-name="Capa 1" xmlns="http://www.w3.org/2000/svg" viewBox="0 0 55 56"><defs><style>.cls-1{fill:#ffd949;}.cls-2{fill:#f4bf1a;}.cls-3{fill:#dca815;}.cls-4{fill:#fe0dc0;}.cls-5{fill:#007dfe;}.cls-6{fill:#b800e8;}.cls-7{fill:#007efe;}</style></defs><path class="cls-1" d="M31,56C17.47,56,6.5,43.46,6.5,28S17.47,0,31,0,55.5,12.54,55.5,28,44.53,56,31,56" transform="translate(-0.5)"/><path class="cls-2" d="M6.5,28C6.5,13.7,15.89,1.91,28,.22A21.18,21.18,0,0,0,25,0C11.47,0,.5,12.54.5,28s11,28,24.5,28a21.18,21.18,0,0,0,3-.22C15.89,54.09,6.5,42.3,6.5,28" transform="translate(-0.5)"/><path class="cls-2" d="M31.08,50.52H31a18.35,18.35,0,0,1-2.1-.12A1,1,0,0,1,28,49.29a1,1,0,0,1,1.11-.88,14.4,14.4,0,0,0,1.86.11,1,1,0,0,1,1,1,1,1,0,0,1-1,1m5.82-1.07A1,1,0,0,1,36,48.8a1,1,0,0,1,.59-1.29,16.05,16.05,0,0,0,1.7-.76,1,1,0,0,1,1.35.44,1,1,0,0,1-.43,1.34,18.1,18.1,0,0,1-1.92.85.84.84,0,0,1-.35.07m-13.54-.77a.93.93,0,0,1-.45-.11,20.57,20.57,0,0,1-1.81-1,1,1,0,0,1,1.1-1.68,15.48,15.48,0,0,0,1.62.94,1,1,0,0,1-.46,1.89m20.11-3.55a1,1,0,0,1-.7-.3,1,1,0,0,1,0-1.41A18.73,18.73,0,0,0,44,42a1,1,0,0,1,1.41-.15,1,1,0,0,1,.14,1.41c-.44.54-.9,1.06-1.38,1.55a1,1,0,0,1-.72.3M17.26,43.72a1,1,0,0,1-.78-.37c-.43-.53-.85-1.09-1.24-1.66a1,1,0,0,1,.28-1.39,1,1,0,0,1,1.38.27c.36.52.74,1,1.13,1.51a1,1,0,0,1-.77,1.64m30.61-5.14a1.14,1.14,0,0,1-.4-.08A1,1,0,0,1,47,37.18c.25-.57.48-1.17.68-1.77a1,1,0,0,1,1.27-.63,1,1,0,0,1,.63,1.27c-.22.65-.47,1.3-.74,1.93a1,1,0,0,1-.92.6M13.44,36.81a1,1,0,0,1-.94-.68c-.22-.64-.42-1.31-.59-2a1,1,0,0,1,.73-1.21,1,1,0,0,1,1.21.73c.16.61.34,1.23.54,1.82a1,1,0,0,1-.62,1.27,1.26,1.26,0,0,1-.33.05m36.32-5.89h-.08a1,1,0,0,1-.92-1.07c.05-.61.07-1.23.07-1.84a1,1,0,0,1,1-1,1,1,0,0,1,1,1V28c0,.67,0,1.33-.07,2a1,1,0,0,1-1,.93M12.17,29a1,1,0,0,1-1-1v0c0-.68,0-1.37.08-2a1,1,0,0,1,1.07-.91,1,1,0,0,1,.92,1.07c-.05.62-.07,1.25-.07,1.88a1,1,0,0,1-1,1m36.93-6a1,1,0,0,1-1-.76c-.15-.61-.33-1.22-.54-1.82a1,1,0,0,1,1.9-.65c.22.65.42,1.32.58,2a1,1,0,0,1-1,1.25M13.43,21.23a1.19,1.19,0,0,1-.32-.05,1,1,0,0,1-.63-1.27c.22-.65.48-1.3.75-1.93a1,1,0,0,1,1.83.8c-.25.58-.48,1.17-.68,1.77a1,1,0,0,1-1,.68M45.9,15.84a1,1,0,0,1-.83-.44,18.54,18.54,0,0,0-1.13-1.51,1,1,0,0,1,1.55-1.28c.43.53.85,1.09,1.24,1.67a1,1,0,0,1-.27,1.39,1,1,0,0,1-.56.17M17.23,14.32a1,1,0,0,1-.63-.23,1,1,0,0,1-.15-1.41,20.65,20.65,0,0,1,1.4-1.54,1,1,0,0,1,1.41,1.41c-.43.44-.86.91-1.26,1.4a1,1,0,0,1-.77.37m23.08-4a1,1,0,0,1-.54-.16,15.62,15.62,0,0,0-1.63-.94,1,1,0,1,1,.91-1.78,20.57,20.57,0,0,1,1.81,1,1,1,0,0,1,.29,1.38,1,1,0,0,1-.84.46m-17-.95a1,1,0,0,1-.46-1.89,18.1,18.1,0,0,1,1.92-.85,1,1,0,1,1,.7,1.88,14.31,14.31,0,0,0-1.71.75,1,1,0,0,1-.45.11m9.61-1.75h-.12A15.86,15.86,0,0,0,31,7.48a1,1,0,0,1-1-1,1,1,0,0,1,1-1h0a20.11,20.11,0,0,1,2,.11,1,1,0,0,1-.11,2" transform="translate(-0.5)"/><path class="cls-3" d="M6.5,29H.5c0,.67.06,1.34.12,2h6c-.06-.66-.1-1.33-.12-2" transform="translate(-0.5)"/><path class="cls-3" d="M6.73,24h-6c-.08.66-.14,1.33-.18,2h6c0-.67.09-1.34.18-2" transform="translate(-0.5)"/><path class="cls-3" d="M7.05,34h-6c.13.68.28,1.34.45,2h6c-.17-.66-.32-1.32-.45-2" transform="translate(-0.5)"/><path class="cls-3" d="M8.45,39h-6c.26.68.54,1.35.84,2h6c-.3-.65-.58-1.32-.83-2" transform="translate(-0.5)"/><path class="cls-3" d="M7.77,19h-6c-.2.66-.38,1.32-.53,2h6c.15-.68.32-1.34.51-2" transform="translate(-0.5)"/><path class="cls-3" d="M9.76,14h-6c-.33.65-.64,1.32-.92,2h6c.29-.68.59-1.35.92-2" transform="translate(-0.5)"/><path class="cls-3" d="M13.85,8h-6c-.57.64-1.11,1.3-1.62,2h6c.51-.7,1.06-1.36,1.63-2" transform="translate(-0.5)"/><path class="cls-3" d="M20,3H14A23.41,23.41,0,0,0,11,5h6A24.16,24.16,0,0,1,20,3" transform="translate(-0.5)"/><path class="cls-3" d="M11.52,45h-6c.46.69,1,1.36,1.47,2h6c-.51-.64-1-1.31-1.47-2" transform="translate(-0.5)"/><path class="cls-3" d="M9.83,50a26.75,26.75,0,0,0,2.53,2h6a25.35,25.35,0,0,1-2.54-2Z" transform="translate(-0.5)"/><path class="cls-4" d="M36.14,17.32a5.56,5.56,0,0,0-4.55,2.6,2.57,2.57,0,0,1-2.85,1.15A2.41,2.41,0,0,1,27,19.72a2.94,2.94,0,0,1-.31-1.57A3.2,3.2,0,0,1,27.1,17a9,9,0,0,1,2.07-2.46,11.41,11.41,0,0,1,2.52-1.65,12.41,12.41,0,0,1,2.46-.8,9.22,9.22,0,0,1,2.51-.24,10.66,10.66,0,0,1,3.26.59,10.16,10.16,0,0,1,1.84.83,12.29,12.29,0,0,1,2,1.39,7.22,7.22,0,0,1,.89.94,9.35,9.35,0,0,1,.86,1.13c.27.42.5.85.73,1.29a11.28,11.28,0,0,1,.93,2.88,8.7,8.7,0,0,1,.18,1.84,11.24,11.24,0,0,1-.14,1.74,12.63,12.63,0,0,1-.42,1.82,7.33,7.33,0,0,1-.49,1.16,11.37,11.37,0,0,1-1.18,2,10.65,10.65,0,0,1-2.37,2.32A11,11,0,0,1,40.57,33a15.15,15.15,0,0,1-2.36.69,2.27,2.27,0,0,1-1.58-.11,2.63,2.63,0,0,1-1.51-1.82A2.53,2.53,0,0,1,35.23,30a2.31,2.31,0,0,1,1.83-1.49,5.64,5.64,0,0,0,4.77-4.62,5.46,5.46,0,0,0-1.75-5.09A5.61,5.61,0,0,0,36.14,17.32Z" transform="translate(-0.5)"/><path class="cls-5" d="M23,32.66c1.12-1.19,2.21-2.31,3.37-3.43v.32c0,2.29,0,4.58,0,6.86a1,1,0,0,1-.35.77l-1.76,1.76L22.74,40.5a6.13,6.13,0,0,1-.82.79,2.51,2.51,0,0,1-1.23.44,2.68,2.68,0,0,1-1.6-.32,2.44,2.44,0,0,1-1.31-2.12q0-7.51,0-15a2.31,2.31,0,0,1,1-1.92,2.56,2.56,0,0,1,2.92-.19A2.34,2.34,0,0,1,23,24.27C23,27,23,29.82,23,32.66Z" transform="translate(-0.5)"/><path class="cls-6" d="M26.66,33.68V26.21a2.35,2.35,0,0,1,1-1.94,2.58,2.58,0,0,1,2.93-.2,2.34,2.34,0,0,1,1.31,2.14q0,7.5,0,15a2.33,2.33,0,0,1-1,1.93,2.58,2.58,0,0,1-2.93.21,2.37,2.37,0,0,1-1.32-2.14C26.65,38.7,26.66,36.19,26.66,33.68Z" transform="translate(-0.5)"/><path class="cls-7" d="M32.17,28.35c0-.77,0-1.53,0-2.3a2.25,2.25,0,0,0-.66-1.6c-.13-.13-.15-.2,0-.34,1.06-1.05,2.13-2.11,3.18-3.17a2.59,2.59,0,0,1,2.09-.78,2.37,2.37,0,0,1,1.46.64,2.71,2.71,0,0,1,.89,1.36,2.55,2.55,0,0,1-.62,2.51l-2.85,2.86c-.82.83-1.65,1.64-2.46,2.46-.29.29-.55.62-.86.89,0,0-.05.14-.13.1s0-.12,0-.18C32.17,30,32.17,29.16,32.17,28.35Z" transform="translate(-0.5)"/></svg>