<svg width="117" height="31" viewBox="0 0 117 31" fill="none" xmlns="http://www.w3.org/2000/svg">
<path d="M17.7254 1.21385C12.8344 -1.1363 7.14611 0.0479762 3.54686 3.715C2.32564 4.9583 2.76568 7.06086 4.33187 7.81972L4.37787 7.84195C5.38827 8.33405 6.64322 8.21907 7.4359 7.42189C8.45756 6.39634 9.77222 5.7129 11.1987 5.46579C12.6251 5.21867 14.0931 5.42005 15.4003 6.04216C16.723 6.67936 17.8144 7.71252 18.5232 8.99821C19.2319 10.2839 19.5227 11.7583 19.3552 13.2168C19.2218 14.3466 19.9171 15.4159 20.9398 15.9157C22.5091 16.6822 24.4386 15.7279 24.6648 13.9994C25.3386 8.82922 22.6701 3.5686 17.7254 1.21385Z" fill="#673BB7"/>
<path d="M12.659 16.5123C15.0908 16.5123 17.0622 14.5409 17.0622 12.1091C17.0622 9.67733 15.0908 7.70596 12.659 7.70596C10.2272 7.70596 8.25586 9.67733 8.25586 12.1091C8.25586 14.5409 10.2272 16.5123 12.659 16.5123Z" fill="#E920D7"/>
<path fill-rule="evenodd" clip-rule="evenodd" d="M17.2452 17.4296C18.0409 16.65 19.2821 16.5458 20.2825 17.0333L20.3139 17.0494C21.9606 17.8511 22.2719 20.0403 20.9518 21.3104C19.1374 23.0572 16.8325 24.2078 14.3459 24.6082C11.8592 25.0087 9.30959 24.6398 7.03847 23.551C6.49893 23.294 5.98701 23.0029 5.50395 22.6814V28.0706C5.50395 29.5904 4.27185 30.8225 2.75198 30.8225C1.2321 30.8225 0 29.5904 0 28.0706V12.3651C0 12.3412 0.00328282 12.318 0.00942265 12.296C0.0110379 11.851 0.0366137 11.4063 0.0860451 10.964C0.288431 9.21246 2.23027 8.22902 3.81486 9.0009L3.95975 9.07142C4.90345 9.53287 5.54281 10.5247 5.41632 11.571C5.38409 11.8373 5.36796 12.1053 5.36802 12.3736C5.36496 12.4692 5.37086 12.565 5.38565 12.6595C5.38819 12.8567 5.40994 13.0484 5.43168 13.2402C5.44273 13.3377 5.45379 13.4351 5.46231 13.5333C5.67274 14.793 6.22317 15.9712 7.05422 16.941C7.88526 17.9107 8.96538 18.6352 10.178 19.0362C11.3907 19.4372 12.6898 19.4994 13.9352 19.2163C15.1807 18.9332 16.3251 18.3154 17.2452 17.4296Z" fill="#2B6DF9"/>
<path d="M45.064 5.15201C45.464 5.15201 45.808 5.28801 46.096 5.56C46.4 5.83201 46.552 6.16001 46.552 6.544C46.552 6.75201 46.504 6.96801 46.408 7.19201L40.48 21.064C40.336 21.368 40.136 21.6 39.88 21.76C39.624 21.92 39.352 22 39.064 22C38.792 21.984 38.536 21.904 38.296 21.76C38.072 21.6 37.896 21.376 37.768 21.088L31.84 7.16801C31.76 7.00801 31.72 6.80801 31.72 6.56801C31.72 6.13601 31.88 5.79201 32.2 5.53601C32.52 5.26401 32.848 5.12801 33.184 5.12801C33.456 5.12801 33.712 5.20801 33.952 5.36801C34.192 5.52801 34.376 5.76001 34.504 6.06401L39.328 17.416L43.744 6.06401C43.872 5.77601 44.056 5.55201 44.296 5.39201C44.536 5.23201 44.792 5.15201 45.064 5.15201Z" fill="white"/>
<path d="M60.5991 15.592C60.5991 16.872 60.3111 18.024 59.7351 19.048C59.1591 20.056 58.3671 20.84 57.3591 21.4C56.3671 21.96 55.2711 22.24 54.0711 22.24C52.8551 22.24 51.7511 21.96 50.7591 21.4C49.7671 20.84 48.9831 20.056 48.4071 19.048C47.8311 18.024 47.5431 16.872 47.5431 15.592C47.5431 14.312 47.8311 13.168 48.4071 12.16C48.9831 11.136 49.7671 10.344 50.7591 9.78401C51.7511 9.20801 52.8551 8.92001 54.0711 8.92001C55.2711 8.92001 56.3671 9.20801 57.3591 9.78401C58.3671 10.344 59.1591 11.136 59.7351 12.16C60.3111 13.168 60.5991 14.312 60.5991 15.592ZM57.7191 15.592C57.7191 14.808 57.5511 14.112 57.2151 13.504C56.8951 12.88 56.4551 12.4 55.8951 12.064C55.3511 11.728 54.7431 11.56 54.0711 11.56C53.3991 11.56 52.7831 11.728 52.2231 12.064C51.6791 12.4 51.2391 12.88 50.9031 13.504C50.5831 14.112 50.4231 14.808 50.4231 15.592C50.4231 16.376 50.5831 17.072 50.9031 17.68C51.2391 18.288 51.6791 18.76 52.2231 19.096C52.7831 19.432 53.3991 19.6 54.0711 19.6C54.7431 19.6 55.3511 19.432 55.8951 19.096C56.4551 18.76 56.8951 18.288 57.2151 17.68C57.5511 17.072 57.7191 16.376 57.7191 15.592Z" fill="white"/>
<path d="M72.4613 19.72C72.6693 19.976 72.7733 20.264 72.7733 20.584C72.7733 20.984 72.6213 21.328 72.3173 21.616C72.0133 21.904 71.6773 22.048 71.3093 22.048C70.8453 22.048 70.4533 21.84 70.1333 21.424L67.2533 17.848L64.4453 21.424C64.3013 21.616 64.1253 21.768 63.9173 21.88C63.7253 21.976 63.5173 22.024 63.2933 22.024C62.9573 22.024 62.6373 21.896 62.3333 21.64C62.0293 21.384 61.8773 21.088 61.8773 20.752C61.8773 20.432 61.9973 20.128 62.2373 19.84L65.5733 15.76L62.1173 11.464C61.9093 11.208 61.8053 10.92 61.8053 10.6C61.8053 10.2 61.9493 9.86401 62.2373 9.59201C62.5413 9.30401 62.8853 9.16001 63.2693 9.16001C63.7333 9.16001 64.1253 9.36 64.4453 9.76L67.3973 13.432L70.1333 9.80801C70.4373 9.37601 70.8213 9.16001 71.2853 9.16001C71.6693 9.16001 71.9893 9.29601 72.2453 9.56801C72.5173 9.82401 72.6533 10.12 72.6533 10.456C72.6533 10.808 72.5413 11.12 72.3173 11.392L69.0053 15.424L72.4613 19.72Z" fill="white"/>
<path d="M81.8766 5.20001C82.6926 5.20001 83.4686 5.44801 84.2046 5.94401C84.9406 6.42401 85.5326 7.08001 85.9806 7.91201C86.4286 8.72801 86.6526 9.62401 86.6526 10.6C86.6526 11.56 86.4286 12.456 85.9806 13.288C85.5326 14.12 84.9406 14.784 84.2046 15.28C83.4686 15.76 82.6926 16 81.8766 16H77.7006V20.536C77.7006 20.968 77.5726 21.32 77.3166 21.592C77.0606 21.864 76.7246 22 76.3086 22C75.9086 22 75.5806 21.864 75.3246 21.592C75.0686 21.304 74.9406 20.952 74.9406 20.536V6.664C74.9406 6.24801 75.0766 5.90401 75.3486 5.63201C75.6366 5.34401 75.9886 5.20001 76.4046 5.20001H81.8766ZM81.8766 13.264C82.1806 13.264 82.4766 13.136 82.7646 12.88C83.0686 12.624 83.3086 12.296 83.4846 11.896C83.6766 11.48 83.7726 11.048 83.7726 10.6C83.7726 10.152 83.6766 9.72801 83.4846 9.32801C83.3086 8.91201 83.0686 8.58401 82.7646 8.34401C82.4766 8.08801 82.1806 7.96001 81.8766 7.96001H77.7006V13.264H81.8766Z" fill="white"/>
<path d="M101.263 15.592C101.263 16.872 100.975 18.024 100.399 19.048C99.8232 20.056 99.0312 20.84 98.0232 21.4C97.0312 21.96 95.9352 22.24 94.7352 22.24C93.5192 22.24 92.4152 21.96 91.4232 21.4C90.4312 20.84 89.6472 20.056 89.0712 19.048C88.4952 18.024 88.2072 16.872 88.2072 15.592C88.2072 14.312 88.4952 13.168 89.0712 12.16C89.6472 11.136 90.4312 10.344 91.4232 9.78401C92.4152 9.20801 93.5192 8.92001 94.7352 8.92001C95.9352 8.92001 97.0312 9.20801 98.0232 9.78401C99.0312 10.344 99.8232 11.136 100.399 12.16C100.975 13.168 101.263 14.312 101.263 15.592ZM98.3832 15.592C98.3832 14.808 98.2152 14.112 97.8792 13.504C97.5592 12.88 97.1192 12.4 96.5592 12.064C96.0152 11.728 95.4072 11.56 94.7352 11.56C94.0632 11.56 93.4472 11.728 92.8872 12.064C92.3432 12.4 91.9032 12.88 91.5672 13.504C91.2472 14.112 91.0872 14.808 91.0872 15.592C91.0872 16.376 91.2472 17.072 91.5672 17.68C91.9032 18.288 92.3432 18.76 92.8872 19.096C93.4472 19.432 94.0632 19.6 94.7352 19.6C95.4072 19.6 96.0152 19.432 96.5592 19.096C97.1192 18.76 97.5592 18.288 97.8792 17.68C98.2152 17.072 98.3832 16.376 98.3832 15.592Z" fill="white"/>
<path d="M110.317 8.92001C111.421 8.92001 112.421 9.20801 113.317 9.78401C114.213 10.344 114.917 11.128 115.429 12.136C115.957 13.144 116.221 14.288 116.221 15.568C116.221 16.848 115.965 18 115.453 19.024C114.941 20.032 114.237 20.824 113.341 21.4C112.461 21.96 111.485 22.24 110.413 22.24C109.645 22.24 108.917 22.088 108.229 21.784C107.557 21.464 106.997 21.08 106.549 20.632V25.336C106.549 25.752 106.413 26.096 106.141 26.368C105.869 26.656 105.525 26.8 105.109 26.8C104.693 26.8 104.349 26.664 104.077 26.392C103.805 26.12 103.669 25.768 103.669 25.336V10.624C103.669 10.208 103.805 9.86401 104.077 9.59201C104.349 9.30401 104.693 9.16001 105.109 9.16001C105.525 9.16001 105.869 9.30401 106.141 9.59201C106.413 9.86401 106.549 10.208 106.549 10.624V10.72C106.933 10.24 107.469 9.82401 108.157 9.47201C108.845 9.10401 109.565 8.92001 110.317 8.92001ZM109.957 19.6C110.981 19.6 111.821 19.216 112.477 18.448C113.133 17.68 113.461 16.72 113.461 15.568C113.461 14.416 113.133 13.464 112.477 12.712C111.837 11.944 110.997 11.56 109.957 11.56C108.917 11.56 108.069 11.944 107.413 12.712C106.757 13.464 106.429 14.416 106.429 15.568C106.429 16.72 106.757 17.68 107.413 18.448C108.069 19.216 108.917 19.6 109.957 19.6Z" fill="white"/>
</svg>
